# xmcd
#
# Track frame offsets:
#	150
#	14700
#	29510
#	47885
#	64187
#	78155
#	95197
#	113715
#	130097
#	146807
#	162765
#	179652
#
# Disc length: 2587 seconds
#
# Revision: 0
# Processed by: cddbd v1.4PL0 Copyright (c) Steve Scherf et al.
# Submitted via: EasyCDDAExtractor 5.0.5.1
#
DISCID=ac0a190c
DTITLE=Tchê Garotos - Só Coisa Boa
DYEAR=1900
DGENRE=Gauchas
TTITLE0=A Vida que o ''Véio Mandô''
TTITLE1=Partindo Ruma à Fronteira
TTITLE2=O Rei das Coxilhas
TTITLE3=Êra! Vida Campeira
TTITLE4=Sou da Lida e Sou da Vida
TTITLE5=A Gaita do Rio Grande
TTITLE6=Coração Tapera
TTITLE7=Hoje a Cobra vai ''Fumá''
TTITLE8=Razão e Coração
TTITLE9=Um Pachola no Rodeio
TTITLE10=Mudei minha Vida
TTITLE11=Bem Campeiro e Carinhoso
EXTD=
EXTT0=
EXTT1=
EXTT2=
EXTT3=
EXTT4=
EXTT5=
EXTT6=
EXTT7=
EXTT8=
EXTT9=
EXTT10=
EXTT11=
PLAYORDER=
